<?xml version="1.0" encoding="UTF-8"?>
<svg width="696px" height="114px" viewBox="0 0 696 114" version="1.1" xmlns="http://www.w3.org/2000/svg" xmlns:xlink="http://www.w3.org/1999/xlink">
    <title>@1xwallet_logo_walletconnect</title>
    <g id="页面-1" stroke="none" stroke-width="1" fill="none" fill-rule="evenodd">
        <g id="wallet_logo_walletconnect" transform="translate(0.639305, 0.461081)" fill-rule="nonzero">
            <path d="M251.190023,62.0599161 L241.635023,96.4189152 L231.690023,96.4189152 L218.391024,46.1089165 L229.311023,46.1089165 L237.228023,82.5349155 L237.501023,82.5349155 L246.900023,46.1089165 L255.792023,46.1089165 L265.191022,82.5349155 L265.464022,82.5349155 L273.420022,46.1089165 L284.340022,46.1089165 L271.002022,96.4189152 L261.057023,96.4189152 L251.502023,62.0599161 L251.190023,62.0599161 Z M298.848022,89.6329154 C303.255021,89.6329154 306.921021,86.7469154 306.921021,82.6909155 L306.921021,79.9609156 L299.043022,80.4289156 C295.260022,80.7019156 293.076022,82.4179155 293.076022,85.0699155 C293.076022,87.9169154 295.377022,89.6329154 298.848022,89.6329154 L298.848022,89.6329154 Z M295.494022,97.0039152 C288.396022,97.0039152 282.975022,92.4019153 282.975022,85.6939155 C282.975022,78.9079156 288.201022,74.9689157 297.522022,74.3839158 L306.921021,73.8379158 L306.921021,71.3809158 C306.921021,67.9099159 304.464021,65.881916 300.642022,65.881916 C296.859022,65.881916 294.441022,67.7539159 293.934022,70.5229159 L284.613022,70.5229159 C285.003022,63.268916 291.165022,58.2769162 301.071022,58.2769162 C310.665021,58.2769162 316.905021,63.229916 316.905021,70.7569158 L316.905021,96.4579152 L307.077021,96.4579152 L307.077021,90.7249153 L306.882021,90.7249153 C304.776021,94.6639152 300.174022,97.0039152 295.494022,97.0039152 Z M323.730021,46.1089165 L333.909021,46.1089165 L333.909021,96.4189152 L323.730021,96.4189152 L323.730021,46.1089165 Z M341.00702,46.1089165 L351.18602,46.1089165 L351.18602,96.4189152 L341.00702,96.4189152 L341.00702,46.1089165 Z M374.82002,65.764916 C370.37402,65.764916 367.13702,69.1579159 366.78602,73.7989158 L382.659019,73.7989158 C382.464019,69.0409159 379.344019,65.764916 374.82002,65.764916 Z M382.815019,84.9919155 L392.175019,84.9919155 C391.044019,92.3239153 384.375019,97.2379152 375.13202,97.2379152 C363.62702,97.2379152 356.72402,89.8669154 356.72402,77.9329157 C356.72402,65.998916 363.70502,58.2769162 374.74202,58.2769162 C385.623019,58.2769162 392.487019,65.647916 392.487019,76.9969157 L392.487019,80.1169156 L366.74702,80.1169156 L366.74702,80.7409156 C366.74702,86.0839155 370.14002,89.7499154 375.32702,89.7499154 C378.99302,89.6719154 381.840019,87.8389154 382.815019,84.9919155 Z M400.404019,50.4379164 L410.583019,50.4379164 L410.583019,59.0569161 L417.486019,59.0569161 L417.486019,66.7399159 L410.583019,66.7399159 L410.583019,84.6019155 C410.583019,87.4489154 411.987019,88.8139154 414.990019,88.8139154 C415.887019,88.8139154 416.823019,88.7359154 417.447019,88.6579154 L417.447019,96.1459152 C416.394019,96.3799152 414.639019,96.5749152 412.611019,96.5749152 C403.836019,96.5749152 400.404019,93.6499153 400.404019,86.3569154 L400.404019,66.7399159 L395.139019,66.7399159 L395.139019,59.0569161 L400.404019,59.0569161 L400.404019,50.4379164 Z M446.151018,97.2769152 C431.526018,97.2769152 422.361018,87.4879154 422.361018,71.2249158 C422.361018,55.0009162 431.604018,45.2119165 446.151018,45.2119165 C458.241017,45.2119165 467.445017,52.8949163 468.264017,64.126916 L458.007017,64.126916 C457.032018,57.9649162 452.274018,53.9089163 446.151018,53.9089163 C438.195018,53.9089163 433.086018,60.5779161 433.086018,71.1469158 C433.086018,81.8719156 438.156018,88.5019154 446.190018,88.5019154 C452.430018,88.5019154 456.915018,84.8359155 458.046017,78.8689156 L468.303017,78.8689156 C467.094017,90.1789153 458.514017,97.2769152 446.151018,97.2769152 Z M491.040017,97.1989152 C479.730017,97.1989152 472.515017,89.9449154 472.515017,77.6989157 C472.515017,65.608916 479.847017,58.2379162 491.040017,58.2379162 C502.233016,58.2379162 509.565016,65.569916 509.565016,77.6989157 C509.565016,89.9839154 502.350016,97.1989152 491.040017,97.1989152 Z M491.040017,89.4379154 C496.032017,89.4379154 499.191016,85.2259155 499.191016,77.7379157 C499.191016,70.3279159 495.993017,66.037916 491.040017,66.037916 C486.087017,66.037916 482.850017,70.3279159 482.850017,77.7379157 C482.850017,85.2259155 486.048017,89.4379154 491.040017,89.4379154 Z M514.791016,96.4189152 L514.791016,59.0569161 L524.619016,59.0569161 L524.619016,65.725916 L524.814016,65.725916 C526.803016,61.0849161 530.742016,58.3549162 536.514015,58.3549162 C544.821015,58.3549162 549.462015,63.580916 549.462015,72.3169158 L549.462015,96.4189152 L539.283015,96.4189152 L539.283015,74.4619158 C539.283015,69.5869159 536.982015,66.7789159 532.419016,66.7789159 C527.856016,66.7789159 524.970016,70.1329159 524.970016,74.9689157 L524.970016,96.4189152 L514.791016,96.4189152 Z M555.897015,96.4189152 L555.897015,59.0569161 L565.725015,59.0569161 L565.725015,65.725916 L565.920015,65.725916 C567.909015,61.0849161 571.848015,58.3549162 577.581014,58.3549162 C585.888014,58.3549162 590.529014,63.580916 590.529014,72.3169158 L590.529014,96.4189152 L580.350014,96.4189152 L580.350014,74.4619158 C580.350014,69.5869159 578.049014,66.7789159 573.486015,66.7789159 C568.923015,66.7789159 566.037015,70.1329159 566.037015,74.9689157 L566.037015,96.4189152 L555.897015,96.4189152 Z M613.812013,65.764916 C609.366014,65.764916 606.129014,69.1579159 605.778014,73.7989158 L621.651013,73.7989158 C621.456013,69.0409159 618.336013,65.764916 613.812013,65.764916 Z M621.768013,84.9919155 L631.128013,84.9919155 C629.997013,92.3239153 623.328013,97.2379152 614.085013,97.2379152 C602.580014,97.2379152 595.677014,89.8669154 595.677014,77.9329157 C595.677014,65.998916 602.658014,58.2769162 613.695013,58.2769162 C624.576013,58.2769162 631.440013,65.647916 631.440013,76.9969157 L631.440013,80.1169156 L605.700014,80.1169156 L605.700014,80.7409156 C605.700014,86.0839155 609.093014,89.7499154 614.280013,89.7499154 C617.985013,89.6719154 620.832013,87.8389154 621.768013,84.9919155 Z M670.596012,72.9409158 L661.158012,72.9409158 C660.573012,69.0019159 657.960012,66.232916 653.787012,66.232916 C648.756013,66.232916 645.636013,70.4839159 645.636013,77.6989157 C645.636013,85.0699155 648.756013,89.2429154 653.826012,89.2429154 C657.921012,89.2429154 660.534012,86.7859154 661.197012,82.7299155 L670.674012,82.7299155 C670.167012,91.5439153 663.576012,97.2379152 653.748012,97.2379152 C642.477013,97.2379152 635.340013,89.9059154 635.340013,77.7379157 C635.340013,65.764916 642.477013,58.2767344 653.670012,58.2767344 C663.732012,58.2379162 670.167012,64.477916 670.596012,72.9409158 L670.596012,72.9409158 Z M678.279012,50.4379164 L688.458012,50.4379164 L688.458012,59.0569161 L695.361011,59.0569161 L695.361011,66.7399159 L688.458012,66.7399159 L688.458012,84.6019155 C688.458012,87.4489154 689.862012,88.8139154 692.865011,88.8139154 C693.762011,88.8139154 694.698011,88.7359154 695.322011,88.6579154 L695.322011,96.1459152 C694.269011,96.3799152 692.553011,96.5749152 690.486012,96.5749152 C681.711012,96.5749152 678.279012,93.6499153 678.279012,86.3569154 L678.279012,66.7399159 L673.014012,66.7399159 L673.014012,59.0569161 L678.279012,59.0569161 L678.279012,50.4379164 Z" id="形状" fill="#3999FA"></path>
            <path d="M37.878749,22.1422494 C68.0257483,-7.38074981 116.892747,-7.38074981 147.078746,22.1422494 L150.705746,25.6912493 C152.226746,27.1732493 152.226746,29.5522492 150.705746,31.0342492 L138.303746,43.2022489 C137.562746,43.9432489 136.314747,43.9432489 135.573747,43.2022489 L130.581747,38.327249 C109.560747,17.7352495 75.4357481,17.7352495 54.4147486,38.327249 L49.0717487,43.5532489 C48.3307488,44.2942489 47.0827488,44.2942489 46.3417488,43.5532489 L33.9007491,31.3852492 C32.3797492,29.9032492 32.3797492,27.5242493 33.9007491,26.0422493 L37.878749,22.1422494 Z M172.740746,47.2582488 L183.777745,58.0612485 C185.298745,59.5432485 185.298745,61.9222484 183.777745,63.4042484 L133.974747,112.193247 C132.453747,113.675247 130.035747,113.675247 128.514747,112.193247 L93.1417476,77.561248 C92.7517476,77.210248 92.1667476,77.210248 91.7767476,77.561248 L56.4427486,112.193247 C54.9217486,113.675247 52.5037487,113.675247 50.9827487,112.193247 L1.14074997,63.4432484 C-0.38024999,61.9612484 -0.38024999,59.5822485 1.14074997,58.1002485 L12.1777497,47.2972488 C13.6987496,45.8152488 16.1167496,45.8152488 17.6377495,47.2972488 L53.0107486,81.9292479 C53.4007486,82.2802479 53.9857486,82.2802479 54.3757486,81.9292479 L89.7097477,47.2972488 C91.2307477,45.8152488 93.6487476,45.8152488 95.1697476,47.2972488 L130.542747,81.9292479 C130.932747,82.2802479 131.517747,82.2802479 131.907747,81.9292479 L167.280746,47.2972488 C168.762746,45.7762488 171.219746,45.7762488 172.740746,47.2582488 Z" id="形状" fill="#3A99FB"></path>
        </g>
    </g>
</svg>