<?xml version="1.0" encoding="UTF-8"?>
<svg width="172px" height="33px" viewBox="0 0 172 33" version="1.1" xmlns="http://www.w3.org/2000/svg" xmlns:xlink="http://www.w3.org/1999/xlink">
    <title>xxhdpi/wallet_logo_metamask</title>
    <g id="页面-1" stroke="none" stroke-width="1" fill="none" fill-rule="evenodd">
        <g id="wallet_logo_metamask" transform="translate(1.000000, 1.000000)" fill-rule="nonzero">
            <path d="M150.256,15.64 C149.372,15.0569 148.398,14.6423 147.476,14.124 C146.878,13.7871 146.241,13.489 145.722,13.0614 C144.838,12.3358 145.02,10.9105 145.943,10.2885 C147.268,9.4074 149.463,9.8997 149.697,11.7009 C149.697,11.7397 149.736,11.7657 149.775,11.7657 L151.776,11.7657 C151.828,11.7657 151.867,11.7268 151.854,11.675 C151.75,10.431 151.269,9.3944 150.386,8.73355 C149.541,8.09862 148.58,7.76172 147.553,7.76172 C142.266,7.76172 141.785,13.3465 144.63,15.1088 C144.955,15.3161 147.748,16.7155 148.736,17.3245 C149.723,17.9335 150.035,19.0479 149.606,19.929 C149.216,20.7324 148.203,21.2896 147.19,21.2248 C146.085,21.16 145.228,20.564 144.929,19.631 C144.877,19.4626 144.851,19.1386 144.851,18.9961 C144.851,18.9572 144.812,18.9183 144.773,18.9183 L142.604,18.9183 C142.565,18.9183 142.526,18.9572 142.526,18.9961 C142.526,20.564 142.916,21.4321 143.981,22.2226 C144.981,22.9741 146.072,23.2851 147.203,23.2851 C150.165,23.2851 151.698,21.6135 152.009,19.8772 C152.282,18.1797 151.776,16.6507 150.256,15.64 Z" id="路径" fill="#FFFFFF"></path>
            <path d="M56.0569,8.04688 L55.0956,8.04688 L54.0433,8.04688 C54.0043,8.04688 53.9783,8.07279 53.9653,8.09871 L52.1856,13.9556 C52.1596,14.0334 52.0557,14.0334 52.0297,13.9556 L50.2499,8.09871 C50.2369,8.05983 50.2109,8.04688 50.1719,8.04688 L49.1197,8.04688 L48.1583,8.04688 L46.8592,8.04688 C46.8202,8.04688 46.7812,8.08575 46.7812,8.12462 L46.7812,23.0779 C46.7812,23.1167 46.8202,23.1556 46.8592,23.1556 L49.0287,23.1556 C49.0677,23.1556 49.1067,23.1167 49.1067,23.0779 L49.1067,11.7139 C49.1067,11.6232 49.2366,11.6103 49.2626,11.688 L51.0553,17.5838 L51.1852,17.9984 C51.1982,18.0373 51.2242,18.0503 51.2632,18.0503 L52.9261,18.0503 C52.965,18.0503 52.991,18.0243 53.004,17.9984 L53.1339,17.5838 L54.9267,11.688 C54.9527,11.5973 55.0826,11.6232 55.0826,11.7139 L55.0826,23.0779 C55.0826,23.1167 55.1216,23.1556 55.1605,23.1556 L57.3301,23.1556 C57.369,23.1556 57.408,23.1167 57.408,23.0779 L57.408,8.12462 C57.408,8.08575 57.369,8.04688 57.3301,8.04688 L56.0569,8.04688 Z" id="路径" fill="#FFFFFF"></path>
            <path d="M117.037,8.04688 C116.998,8.04688 116.972,8.07279 116.959,8.09871 L115.18,13.9556 C115.154,14.0334 115.05,14.0334 115.024,13.9556 L113.244,8.09871 C113.231,8.05983 113.205,8.04688 113.166,8.04688 L109.866,8.04688 C109.827,8.04688 109.788,8.08575 109.788,8.12462 L109.788,23.0779 C109.788,23.1167 109.827,23.1556 109.866,23.1556 L112.036,23.1556 C112.075,23.1556 112.114,23.1167 112.114,23.0779 L112.114,11.7139 C112.114,11.6232 112.244,11.6103 112.27,11.688 L114.062,17.5838 L114.192,17.9984 C114.205,18.0373 114.231,18.0503 114.27,18.0503 L115.933,18.0503 C115.972,18.0503 115.998,18.0243 116.011,17.9984 L116.141,17.5838 L117.934,11.688 C117.96,11.5973 118.09,11.6232 118.09,11.7139 L118.09,23.0779 C118.09,23.1167 118.129,23.1556 118.168,23.1556 L120.337,23.1556 C120.376,23.1556 120.415,23.1167 120.415,23.0779 L120.415,8.12462 C120.415,8.08575 120.376,8.04688 120.337,8.04688 L117.037,8.04688 Z" id="路径" fill="#FFFFFF"></path>
            <path d="M89.0543,8.04688 L85.014,8.04688 L82.8445,8.04688 L78.8043,8.04688 C78.7653,8.04688 78.7263,8.08575 78.7263,8.12462 L78.7263,9.9905 C78.7263,10.0294 78.7653,10.0683 78.8043,10.0683 L82.7666,10.0683 L82.7666,23.0779 C82.7666,23.1167 82.8055,23.1556 82.8445,23.1556 L85.014,23.1556 C85.053,23.1556 85.092,23.1167 85.092,23.0779 L85.092,10.0683 L89.0543,10.0683 C89.0933,10.0683 89.1322,10.0294 89.1322,9.9905 L89.1322,8.12462 C89.1322,8.08575 89.1063,8.04688 89.0543,8.04688 Z" id="路径" fill="#FFFFFF"></path>
            <path d="M101.851,23.1554 L103.825,23.1554 C103.877,23.1554 103.916,23.1036 103.903,23.0518 L99.824,8.0467 C99.811,8.00783 99.785,7.99487 99.746,7.99487 L98.9927,7.99487 L97.6676,7.99487 L96.9141,7.99487 C96.8751,7.99487 96.8491,8.02079 96.8361,8.0467 L92.7569,23.0518 C92.7439,23.1036 92.7829,23.1554 92.8349,23.1554 L94.8095,23.1554 C94.8485,23.1554 94.8745,23.1295 94.8875,23.1036 L96.0697,18.7368 C96.0826,18.698 96.1086,18.685 96.1476,18.685 L100.513,18.685 C100.552,18.685 100.578,18.7109 100.591,18.7368 L101.773,23.1036 C101.786,23.1295 101.825,23.1554 101.851,23.1554 Z M96.6672,16.547 L98.2522,10.703 C98.2781,10.6253 98.3821,10.6253 98.4081,10.703 L99.993,16.547 C100.006,16.5988 99.967,16.6506 99.915,16.6506 L96.7452,16.6506 C96.6932,16.6506 96.6543,16.5988 96.6672,16.547 Z" id="形状" fill="#FFFFFF"></path>
            <path d="M135.524,23.1554 L137.498,23.1554 C137.55,23.1554 137.589,23.1036 137.576,23.0518 L133.497,8.0467 C133.484,8.00783 133.458,7.99487 133.419,7.99487 L132.666,7.99487 L131.341,7.99487 L130.587,7.99487 C130.548,7.99487 130.522,8.02079 130.509,8.0467 L126.43,23.0518 C126.417,23.1036 126.456,23.1554 126.508,23.1554 L128.483,23.1554 C128.522,23.1554 128.548,23.1295 128.561,23.1036 L129.743,18.7368 C129.756,18.698 129.782,18.685 129.821,18.685 L134.186,18.685 C134.225,18.685 134.251,18.7109 134.264,18.7368 L135.446,23.1036 C135.459,23.1295 135.485,23.1554 135.524,23.1554 Z M130.34,16.547 L131.925,10.703 C131.951,10.6253 132.055,10.6253 132.081,10.703 L133.666,16.547 C133.679,16.5988 133.64,16.6506 133.588,16.6506 L130.418,16.6506 C130.366,16.6506 130.327,16.5988 130.34,16.547 Z" id="形状" fill="#FFFFFF"></path>
            <path d="M66.216,20.9398 L66.216,16.3009 C66.216,16.2621 66.255,16.2232 66.294,16.2232 L72.075,16.2232 C72.114,16.2232 72.153,16.1843 72.153,16.1454 L72.153,14.2795 C72.153,14.2407 72.114,14.2018 72.075,14.2018 L66.294,14.2018 C66.255,14.2018 66.216,14.1629 66.216,14.124 L66.216,10.159 C66.216,10.1201 66.255,10.0812 66.294,10.0812 L72.8675,10.0812 C72.9065,10.0812 72.9455,10.0423 72.9455,10.0035 L72.9455,8.13756 C72.9455,8.09869 72.9065,8.05981 72.8675,8.05981 L66.216,8.05981 L63.9686,8.05981 C63.9296,8.05981 63.8906,8.09869 63.8906,8.13756 L63.8906,10.0812 L63.8906,14.2147 L63.8906,16.2362 L63.8906,21.0305 L63.8906,23.0778 C63.8906,23.1167 63.9296,23.1556 63.9686,23.1556 L66.216,23.1556 L73.1403,23.1556 C73.1793,23.1556 73.2183,23.1167 73.2183,23.0778 L73.2183,21.1083 C73.2183,21.0694 73.1793,21.0305 73.1403,21.0305 L66.281,21.0305 C66.242,21.0176 66.216,20.9916 66.216,20.9398 Z" id="路径" fill="#FFFFFF"></path>
            <path d="M170.08,23.026 L162.571,15.2902 C162.545,15.2643 162.545,15.2125 162.571,15.1866 L169.327,8.18939 C169.379,8.13756 169.34,8.05981 169.275,8.05981 L166.508,8.05981 C166.482,8.05981 166.469,8.07277 166.456,8.08573 L160.727,14.0204 C160.675,14.0722 160.597,14.0333 160.597,13.9685 L160.597,8.13756 C160.597,8.09869 160.558,8.05981 160.519,8.05981 L158.349,8.05981 C158.31,8.05981 158.271,8.09869 158.271,8.13756 L158.271,23.0908 C158.271,23.1297 158.31,23.1686 158.349,23.1686 L160.519,23.1686 C160.558,23.1686 160.597,23.1297 160.597,23.0908 L160.597,16.5083 C160.597,16.4435 160.688,16.4046 160.727,16.4564 L167.222,23.1426 C167.235,23.1556 167.261,23.1686 167.274,23.1686 L170.041,23.1686 C170.093,23.1556 170.132,23.0649 170.08,23.026 Z" id="路径" fill="#FFFFFF"></path>
            <polygon id="路径" stroke="#E17726" stroke-width="0.25" fill="#E17726" stroke-linecap="round" stroke-linejoin="round" points="31.9583 0 18.8242 9.7183 21.2666 3.99099"></polygon>
            <polygon id="路径" stroke="#E27625" stroke-width="0.25" fill="#E27625" stroke-linecap="round" stroke-linejoin="round" points="1.66284 0 14.68 9.809 12.3546 3.99098"></polygon>
            <polygon id="路径" stroke="#E27625" stroke-width="0.25" fill="#E27625" stroke-linecap="round" stroke-linejoin="round" points="27.2292 22.5334 23.7346 27.872 31.2175 29.9323 33.3611 22.6501"></polygon>
            <polygon id="路径" stroke="#E27625" stroke-width="0.25" fill="#E27625" stroke-linecap="round" stroke-linejoin="round" points="0.27271 22.6501 2.40325 29.9323 9.8732 27.872 6.39154 22.5334"></polygon>
            <polygon id="路径" stroke="#E27625" stroke-width="0.25" fill="#E27625" stroke-linecap="round" stroke-linejoin="round" points="9.4704 13.5149 7.39185 16.6507 14.7968 16.9876 14.55 9.0186"></polygon>
            <polygon id="路径" stroke="#E27625" stroke-width="0.25" fill="#E27625" stroke-linecap="round" stroke-linejoin="round" points="24.1503 13.515 18.9929 8.92798 18.824 16.9877 26.2289 16.6508"></polygon>
            <polygon id="路径" stroke="#E27625" stroke-width="0.25" fill="#E27625" stroke-linecap="round" stroke-linejoin="round" points="9.8733 27.872 14.3552 25.7081 10.4969 22.7019"></polygon>
            <polygon id="路径" stroke="#E27625" stroke-width="0.25" fill="#E27625" stroke-linecap="round" stroke-linejoin="round" points="19.2659 25.7081 23.7348 27.872 23.1242 22.7019"></polygon>
            <polygon id="路径" stroke="#D5BFB2" stroke-width="0.25" fill="#D5BFB2" stroke-linecap="round" stroke-linejoin="round" points="23.7348 27.8722 19.2659 25.7083 19.6296 28.6108 19.5906 29.8418"></polygon>
            <polygon id="路径" stroke="#D5BFB2" stroke-width="0.25" fill="#D5BFB2" stroke-linecap="round" stroke-linejoin="round" points="9.8733 27.8722 14.0305 29.8418 14.0045 28.6108 14.3552 25.7083"></polygon>
            <polygon id="路径" stroke="#233447" stroke-width="0.25" fill="#233447" stroke-linecap="round" stroke-linejoin="round" points="14.1083 20.7842 10.3928 19.6958 13.017 18.4907"></polygon>
            <polygon id="路径" stroke="#233447" stroke-width="0.25" fill="#233447" stroke-linecap="round" stroke-linejoin="round" points="19.5127 20.7842 20.604 18.4907 23.2412 19.6958"></polygon>
            <polygon id="路径" stroke="#CC6228" stroke-width="0.25" fill="#CC6228" stroke-linecap="round" stroke-linejoin="round" points="9.8732 27.872 10.5228 22.5334 6.3916 22.6501"></polygon>
            <polygon id="路径" stroke="#CC6228" stroke-width="0.25" fill="#CC6228" stroke-linecap="round" stroke-linejoin="round" points="23.0981 22.5334 23.7347 27.872 27.2293 22.6501"></polygon>
            <polygon id="路径" stroke="#CC6228" stroke-width="0.25" fill="#CC6228" stroke-linecap="round" stroke-linejoin="round" points="26.2289 16.6506 18.824 16.9875 19.5125 20.7842 20.6038 18.4906 23.241 19.6957"></polygon>
            <polygon id="路径" stroke="#CC6228" stroke-width="0.25" fill="#CC6228" stroke-linecap="round" stroke-linejoin="round" points="10.3928 19.6957 13.017 18.4906 14.1083 20.7842 14.7968 16.9875 7.39185 16.6506"></polygon>
            <polygon id="路径" stroke="#E27525" stroke-width="0.25" fill="#E27525" stroke-linecap="round" stroke-linejoin="round" points="7.39209 16.6506 10.497 22.7019 10.393 19.6957"></polygon>
            <polygon id="路径" stroke="#E27525" stroke-width="0.25" fill="#E27525" stroke-linecap="round" stroke-linejoin="round" points="23.2412 19.6957 23.1243 22.7019 26.2292 16.6506"></polygon>
            <polygon id="路径" stroke="#E27525" stroke-width="0.25" fill="#E27525" stroke-linecap="round" stroke-linejoin="round" points="14.7972 16.9875 14.1086 20.7842 14.979 25.2675 15.1739 19.3588"></polygon>
            <polygon id="路径" stroke="#E27525" stroke-width="0.25" fill="#E27525" stroke-linecap="round" stroke-linejoin="round" points="18.8242 16.9875 18.4604 19.3459 18.6423 25.2675 19.5127 20.7842"></polygon>
            <polygon id="路径" stroke="#F5841F" stroke-width="0.25" fill="#F5841F" stroke-linecap="round" stroke-linejoin="round" points="19.5127 20.7843 18.6423 25.2676 19.2659 25.7082 23.1243 22.702 23.2412 19.6958"></polygon>
            <polygon id="路径" stroke="#F5841F" stroke-width="0.25" fill="#F5841F" stroke-linecap="round" stroke-linejoin="round" points="10.3928 19.6958 10.4968 22.702 14.3551 25.7082 14.9787 25.2676 14.1083 20.7843"></polygon>
            <polygon id="路径" stroke="#C0AC9D" stroke-width="0.25" fill="#C0AC9D" stroke-linecap="round" stroke-linejoin="round" points="19.5907 29.8417 19.6296 28.6107 19.2919 28.3256 14.3293 28.3256 14.0045 28.6107 14.0305 29.8417 9.8733 27.8721 11.3283 29.0642 14.2773 31.0986 19.3308 31.0986 22.2928 29.0642 23.7348 27.8721"></polygon>
            <polygon id="路径" stroke="#161616" stroke-width="0.25" fill="#161616" stroke-linecap="round" stroke-linejoin="round" points="19.2658 25.7081 18.6422 25.2676 14.9787 25.2676 14.3552 25.7081 14.0044 28.6107 14.3292 28.3256 19.2918 28.3256 19.6296 28.6107"></polygon>
            <polygon id="路径" stroke="#763E1A" stroke-width="0.25" fill="#763E1A" stroke-linecap="round" stroke-linejoin="round" points="32.5168 10.3532 33.6211 4.98873 31.9582 0 19.2659 9.3944 24.1505 13.5149 31.0488 15.5234 32.5688 13.7482 31.9063 13.2687 32.9585 12.3099 32.1531 11.6879 33.2054 10.8845"></polygon>
            <polygon id="路径" stroke="#763E1A" stroke-width="0.25" fill="#763E1A" stroke-linecap="round" stroke-linejoin="round" points="0 4.98873 1.11724 10.3532 0.40273 10.8845 1.468 11.6879 0.66255 12.3099 1.71483 13.2687 1.05228 13.7482 2.57225 15.5234 9.4706 13.5149 14.3552 9.3944 1.66287 0"></polygon>
            <polygon id="路径" stroke="#F5841F" stroke-width="0.25" fill="#F5841F" stroke-linecap="round" stroke-linejoin="round" points="31.0489 15.5233 24.1506 13.5149 26.2292 16.6507 23.1243 22.7019 27.2295 22.6501 33.3613 22.6501"></polygon>
            <polygon id="路径" stroke="#F5841F" stroke-width="0.25" fill="#F5841F" stroke-linecap="round" stroke-linejoin="round" points="9.4704 13.5149 2.57214 15.5233 0.27271 22.6501 6.39154 22.6501 10.4967 22.7019 7.39186 16.6507"></polygon>
            <polygon id="路径" stroke="#F5841F" stroke-width="0.25" fill="#F5841F" stroke-linecap="round" stroke-linejoin="round" points="18.8241 16.9876 19.2658 9.3943 21.2664 3.99097 12.3545 3.99097 14.3551 9.3943 14.7968 16.9876 14.9657 19.3718 14.9787 25.2676 18.6422 25.2676 18.6552 19.3718"></polygon>
        </g>
    </g>
</svg>