<?xml version="1.0" encoding="UTF-8"?>
<svg width="380px" height="97px" viewBox="0 0 380 97" version="1.1" xmlns="http://www.w3.org/2000/svg" xmlns:xlink="http://www.w3.org/1999/xlink">
    <title>xxhdpi/wallet_logo_trustwallet</title>
    <g id="页面-1" stroke="none" stroke-width="1" fill="none" fill-rule="evenodd">
        <g id="wallet_logo_trustwallet" transform="translate(0.500000, 0.500000)">
            <path d="M126.516,37.847 L116.154,37.847 L116.154,31.74 L144.371,31.74 L144.371,37.847 L134.009,37.847 L134.009,64.122 L126.516,64.122 L126.516,37.847 Z M151.47,42.519 C152.333,41.316 153.49,40.406 154.939,39.789 C156.419,39.173 158.115,38.864 160.027,38.864 L160.027,45.526 C159.226,45.464 158.686,45.433 158.408,45.433 C156.342,45.433 154.723,46.019 153.551,47.191 C152.379,48.332 151.793,50.059 151.793,52.372 L151.793,64.122 L144.577,64.122 L144.577,39.234 L151.47,39.234 L151.47,42.519 Z M186.796,39.234 L186.796,64.122 L179.949,64.122 L179.949,61.161 C178.993,62.24 177.852,63.073 176.526,63.659 C175.2,64.214 173.766,64.492 172.224,64.492 C168.955,64.492 166.365,63.551 164.453,61.67 C162.541,59.789 161.585,56.998 161.585,53.297 L161.585,39.234 L168.801,39.234 L168.801,52.233 C168.801,56.242 170.482,58.247 173.843,58.247 C175.57,58.247 176.958,57.692 178.007,56.581 C179.055,55.44 179.579,53.76 179.579,51.539 L179.579,39.234 L186.796,39.234 Z M199.079,64.492 C197.012,64.492 194.992,64.245 193.019,63.752 C191.045,63.227 189.472,62.58 188.3,61.809 L190.706,56.628 C191.816,57.337 193.157,57.923 194.73,58.385 C196.303,58.817 197.845,59.033 199.356,59.033 C202.409,59.033 203.936,58.278 203.936,56.766 C203.936,56.057 203.519,55.548 202.687,55.24 C201.854,54.932 200.574,54.669 198.847,54.453 C196.812,54.145 195.131,53.79 193.805,53.39 C192.479,52.989 191.323,52.279 190.336,51.262 C189.38,50.244 188.902,48.795 188.902,46.913 C188.902,45.341 189.349,43.953 190.243,42.75 C191.168,41.516 192.494,40.56 194.221,39.882 C195.979,39.204 198.045,38.864 200.42,38.864 C202.178,38.864 203.92,39.065 205.647,39.466 C207.405,39.836 208.855,40.36 209.996,41.038 L207.59,46.173 C205.401,44.94 203.011,44.323 200.42,44.323 C198.878,44.323 197.722,44.539 196.951,44.97 C196.18,45.402 195.794,45.957 195.794,46.636 C195.794,47.407 196.211,47.946 197.043,48.255 C197.876,48.563 199.202,48.856 201.021,49.134 C203.057,49.473 204.722,49.843 206.017,50.244 C207.313,50.614 208.438,51.308 209.394,52.326 C210.35,53.343 210.828,54.762 210.828,56.581 C210.828,58.123 210.366,59.496 209.441,60.698 C208.515,61.901 207.158,62.842 205.37,63.52 C203.612,64.168 201.515,64.492 199.079,64.492 Z M228.557,62.919 C227.848,63.443 226.969,63.844 225.92,64.122 C224.903,64.368 223.823,64.492 222.682,64.492 C219.722,64.492 217.424,63.736 215.79,62.225 C214.186,60.714 213.384,58.493 213.384,55.564 L213.384,45.341 L209.545,45.341 L209.545,39.789 L213.384,39.789 L213.384,33.73 L220.6,33.73 L220.6,39.789 L226.799,39.789 L226.799,45.341 L220.6,45.341 L220.6,55.471 C220.6,56.52 220.863,57.337 221.387,57.923 C221.942,58.478 222.713,58.756 223.7,58.756 C224.841,58.756 225.812,58.447 226.614,57.83 L228.557,62.919 Z M289.608,31.74 L279.015,64.122 L270.966,64.122 L263.842,42.195 L256.487,64.122 L248.484,64.122 L237.845,31.74 L245.616,31.74 L252.925,54.5 L260.558,31.74 L267.496,31.74 L274.898,54.685 L282.438,31.74 L289.608,31.74 Z M298.693,38.864 C302.548,38.864 305.509,39.789 307.575,41.64 C309.641,43.459 310.674,46.219 310.674,49.92 L310.674,64.122 L303.92,64.122 L303.92,61.022 C302.564,63.335 300.035,64.492 296.334,64.492 C294.422,64.492 292.757,64.168 291.338,63.52 C289.95,62.873 288.886,61.978 288.146,60.837 C287.406,59.696 287.036,58.401 287.036,56.951 C287.036,54.639 287.9,52.819 289.627,51.493 C291.384,50.167 294.083,49.504 297.722,49.504 L303.458,49.504 C303.458,47.931 302.98,46.728 302.024,45.896 C301.068,45.032 299.634,44.6 297.722,44.6 C296.396,44.6 295.085,44.816 293.79,45.248 C292.525,45.649 291.446,46.204 290.552,46.913 L287.961,41.871 C289.318,40.915 290.937,40.175 292.818,39.651 C294.73,39.126 296.689,38.864 298.693,38.864 Z M298.138,59.634 C299.372,59.634 300.467,59.357 301.423,58.802 C302.379,58.216 303.057,57.368 303.458,56.258 L303.458,53.713 L298.508,53.713 C295.548,53.713 294.067,54.685 294.067,56.628 C294.067,57.553 294.422,58.293 295.131,58.848 C295.871,59.372 296.874,59.634 298.138,59.634 Z M314.43,29.798 L321.646,29.798 L321.646,64.122 L314.43,64.122 L314.43,29.798 Z M325.568,29.798 L332.785,29.798 L332.785,64.122 L325.568,64.122 L325.568,29.798 Z M361.085,51.77 C361.085,51.863 361.039,52.511 360.946,53.713 L342.119,53.713 C342.458,55.255 343.26,56.473 344.524,57.368 C345.789,58.262 347.361,58.709 349.243,58.709 C350.538,58.709 351.679,58.524 352.666,58.154 C353.683,57.753 354.624,57.137 355.487,56.304 L359.327,60.467 C356.983,63.15 353.56,64.492 349.058,64.492 C346.251,64.492 343.769,63.952 341.61,62.873 C339.451,61.762 337.786,60.236 336.614,58.293 C335.442,56.35 334.856,54.145 334.856,51.678 C334.856,49.242 335.427,47.052 336.568,45.109 C337.74,43.136 339.328,41.609 341.332,40.53 C343.368,39.419 345.634,38.864 348.132,38.864 C350.569,38.864 352.774,39.389 354.747,40.437 C356.721,41.486 358.263,42.997 359.373,44.97 C360.514,46.913 361.085,49.18 361.085,51.77 Z M348.179,44.323 C346.544,44.323 345.172,44.785 344.062,45.711 C342.951,46.636 342.273,47.9 342.026,49.504 L354.285,49.504 C354.038,47.931 353.36,46.682 352.249,45.757 C351.139,44.801 349.782,44.323 348.179,44.323 Z M379.165,62.919 C378.456,63.443 377.577,63.844 376.529,64.122 C375.511,64.368 374.432,64.492 373.291,64.492 C370.33,64.492 368.033,63.736 366.398,62.225 C364.794,60.714 363.993,58.493 363.993,55.564 L363.993,45.341 L360.153,45.341 L360.153,39.789 L363.993,39.789 L363.993,33.73 L371.209,33.73 L371.209,39.789 L377.408,39.789 L377.408,45.341 L371.209,45.341 L371.209,55.471 C371.209,56.52 371.471,57.337 371.995,57.923 C372.55,58.478 373.321,58.756 374.308,58.756 C375.449,58.756 376.421,58.447 377.223,57.83 L379.165,62.919 Z" id="形状" fill="#3375BB" fill-rule="nonzero"></path>
            <rect id="矩形" stroke="#DFE5EC" fill="#FFFFFF" fill-rule="nonzero" x="0" y="0" width="95.4505" height="95.4505" rx="32.0485"></rect>
            <path d="M3.6456,48.414 C3.6456,23.919 23.5025,4.0624 47.997,4.0624 C72.492,4.0624 92.349,23.919 92.349,48.414 C92.349,72.909 72.492,92.766 47.997,92.766 C23.5025,92.766 3.6456,72.909 3.6456,48.414 Z" id="路径" fill="#FFFFFF" fill-rule="nonzero"></path>
            <path d="M48.023,21.907 C56.973,29.382 67.237,28.921 70.169,28.921 C69.528,71.431 64.64,63.001 48.023,74.921 C31.4063,63.001 26.5495,71.431 25.9081,28.921 C28.8099,28.921 39.0733,29.382 48.023,21.907 Z" id="路径" stroke="#3375BB" stroke-width="6.06304" stroke-linecap="round" stroke-linejoin="round"></path>
        </g>
    </g>
</svg>