<svg width="20" height="20" viewBox="0 0 20 20" fill="none" xmlns="http://www.w3.org/2000/svg">
<g clip-path="url(#clip0_52_9999)">
<path d="M13.8139 17.0295C13.8139 17.1167 13.7967 17.2031 13.7633 17.2836C13.7299 17.3642 13.6809 17.4373 13.6191 17.4989C13.5574 17.5605 13.4841 17.6093 13.4035 17.6426C13.3229 17.6758 13.2365 17.6928 13.1493 17.6926H2.96929C2.61852 17.6926 2.30929 17.3603 2.30929 16.9234V3.07722C2.30929 2.6403 2.61698 2.30799 2.96929 2.30799H13.0616C13.477 2.30799 13.8124 2.64338 13.8124 3.05876C13.8124 3.26277 13.8934 3.45843 14.0377 3.60269C14.1819 3.74695 14.3776 3.82799 14.5816 3.82799C14.7856 3.82799 14.9813 3.74695 15.1255 3.60269C15.2698 3.45843 15.3508 3.26277 15.3508 3.05876C15.3524 1.79415 14.3277 0.769531 13.0616 0.769531H2.96775C1.73852 0.769531 0.769287 1.81569 0.769287 3.07722V16.9234C0.769287 18.1849 1.74006 19.2311 2.96775 19.2311H13.1493C14.3647 19.2311 15.3524 18.2465 15.3524 17.0295C15.3524 16.8255 15.2713 16.6299 15.1271 16.4856C14.9828 16.3413 14.7871 16.2603 14.5831 16.2603C14.3791 16.2603 14.1835 16.3413 14.0392 16.4856C13.8949 16.6299 13.8139 16.8255 13.8139 17.0295Z" fill="#303133"/>
<path d="M16.4585 9.21854L14.6523 7.48316C14.5141 7.3399 14.4367 7.14859 14.4366 6.94948C14.4364 6.75036 14.5135 6.55894 14.6516 6.41548C14.7897 6.27202 14.978 6.18769 15.177 6.18023C15.3759 6.17277 15.5701 6.24275 15.7185 6.37547L18.9139 9.4447C19.0609 9.5856 19.1461 9.77907 19.1507 9.98268C19.1553 10.1863 19.079 10.3834 18.9385 10.5309L15.7431 13.8862C15.6023 14.0339 15.4087 14.1197 15.2047 14.1246C15.0007 14.1295 14.8031 14.0532 14.6554 13.9124C14.5077 13.7716 14.422 13.5779 14.4171 13.374C14.4122 13.17 14.4885 12.9724 14.6293 12.8247L16.5985 10.757L6.92311 10.7693C6.8221 10.7695 6.72203 10.7498 6.62863 10.7113C6.53522 10.6729 6.45031 10.6164 6.37874 10.5451C6.30716 10.4738 6.25033 10.3891 6.21149 10.2959C6.17264 10.2026 6.15255 10.1026 6.15235 10.0016C6.15214 9.9006 6.17184 9.80054 6.21031 9.70713C6.24878 9.61373 6.30527 9.52881 6.37656 9.45724C6.44785 9.38567 6.53253 9.32884 6.62578 9.28999C6.71903 9.25115 6.81902 9.23105 6.92004 9.23085L16.457 9.21854H16.4585Z" fill="#303133"/>
</g>
<defs>
<clipPath id="clip0_52_9999">
<rect width="20" height="20" fill="white"/>
</clipPath>
</defs>
</svg>
