<svg width="28" height="28" viewBox="0 0 28 28" fill="none" xmlns="http://www.w3.org/2000/svg">
<circle cx="14" cy="14" r="14" fill="#0A0810"/>
<path d="M19.5447 9.01094C18.5249 8.54302 17.4313 8.19828 16.2879 8.00083C16.2671 7.99702 16.2463 8.00654 16.2356 8.02559C16.0949 8.27573 15.9392 8.60206 15.8301 8.85856C14.6003 8.67445 13.3768 8.67445 12.1722 8.85856C12.0631 8.59636 11.9017 8.27573 11.7604 8.02559C11.7497 8.00718 11.7289 7.99765 11.708 8.00083C10.5653 8.19765 9.47171 8.54239 8.45129 9.01094C8.44246 9.01475 8.43488 9.02111 8.42986 9.02935C6.35559 12.1283 5.78737 15.151 6.06612 18.1363C6.06738 18.1509 6.07558 18.1648 6.08693 18.1737C7.45547 19.1787 8.78114 19.7889 10.0822 20.1933C10.103 20.1997 10.1251 20.192 10.1383 20.1749C10.4461 19.7546 10.7204 19.3115 10.9557 18.8454C10.9695 18.8181 10.9563 18.7857 10.9279 18.775C10.4928 18.6099 10.0784 18.4086 9.67982 18.1801C9.64829 18.1617 9.64577 18.1166 9.67477 18.095C9.75865 18.0321 9.84255 17.9667 9.92264 17.9007C9.93713 17.8886 9.95732 17.8861 9.97435 17.8937C12.5929 19.0892 15.4277 19.0892 18.0153 17.8937C18.0323 17.8855 18.0525 17.888 18.0677 17.9001C18.1478 17.9661 18.2316 18.0321 18.3161 18.095C18.3451 18.1166 18.3433 18.1617 18.3117 18.1801C17.9131 18.4131 17.4988 18.6099 17.063 18.7743C17.0346 18.7851 17.022 18.8181 17.0359 18.8454C17.2762 19.3108 17.5505 19.754 17.8526 20.1743C17.8652 20.192 17.8879 20.1997 17.9087 20.1933C19.2161 19.7889 20.5417 19.1787 21.9103 18.1737C21.9223 18.1648 21.9298 18.1515 21.9311 18.1369C22.2647 14.6856 21.3723 11.6877 19.5655 9.02998C19.5611 9.02111 19.5535 9.01475 19.5447 9.01094ZM11.3467 16.3185C10.5583 16.3185 9.90876 15.5948 9.90876 14.7059C9.90876 13.8171 10.5457 13.0933 11.3467 13.0933C12.1539 13.0933 12.7972 13.8234 12.7846 14.7059C12.7846 15.5948 12.1476 16.3185 11.3467 16.3185ZM16.6632 16.3185C15.8748 16.3185 15.2253 15.5948 15.2253 14.7059C15.2253 13.8171 15.8622 13.0933 16.6632 13.0933C17.4704 13.0933 18.1137 13.8234 18.1011 14.7059C18.1011 15.5948 17.4704 16.3185 16.6632 16.3185Z" fill="white"/>
</svg>
