<svg width="78" height="56" viewBox="0 0 78 56" fill="none" xmlns="http://www.w3.org/2000/svg">
<g clip-path="url(#clip0_565_5419)">
<path d="M76.3024 8.87823C75.4076 5.51735 73.4462 2.67265 70.0853 1.77794C63.9944 0.149118 39 0 39 0C39 0 14.0056 0.149118 7.91471 1.77794C4.55382 2.67265 2.60382 5.51735 1.69765 8.87823C0.0688236 14.9691 0 27.5294 0 27.5294C0 27.5294 0.0688236 40.0897 1.69765 46.1806C2.59235 49.5415 4.55382 52.3862 7.91471 53.2809C14.0056 54.9097 39 55.0588 39 55.0588C39 55.0588 63.9944 54.9097 70.0853 53.2809C73.4462 52.3862 75.4076 49.5415 76.3024 46.1806C77.9312 40.0897 78 27.5294 78 27.5294C78 27.5294 77.9312 14.9691 76.3024 8.87823Z" fill="#FF0000"/>
<path d="M51.6178 27.5294L30.9707 16.0588V39" fill="white"/>
</g>
<defs>
<clipPath id="clip0_565_5419">
<rect width="78" height="55.0588" fill="white"/>
</clipPath>
</defs>
</svg>
