<svg width="86" height="20" viewBox="0 0 86 20" fill="none" xmlns="http://www.w3.org/2000/svg">
<path d="M13.0101 0.861453C10.5606 0.893337 5.45013 0.99696 3.86144 1.41145C2.69535 1.73029 1.83448 2.68681 1.52144 3.80276C0.981438 5.95493 0.989264 10.4267 0.989264 10.4267C0.989264 10.4267 0.981438 14.8984 1.52144 17.0506C1.82666 18.2462 2.76579 19.123 3.86144 19.4419C5.96666 19.9999 14.3484 19.9839 14.3484 19.9839C14.3484 19.9839 22.7223 19.9919 24.8354 19.4419C26.0093 19.123 26.8623 18.1665 27.1754 17.0506C27.7153 14.8984 27.7075 10.4267 27.7075 10.4267C27.7075 10.4267 27.7936 5.95493 27.1754 3.80276C26.8623 2.6071 25.931 1.73029 24.8354 1.41145C22.738 0.853482 14.3562 0.861453 14.3562 0.861453C14.3562 0.861453 13.8319 0.853482 13.018 0.861453H13.0101ZM69.5223 1.57884V18.5412H71.698L71.9406 17.4491H72.011C72.2458 17.8477 72.5667 18.1506 72.958 18.3897C73.3493 18.6288 73.8032 18.7086 74.2727 18.7086C75.1336 18.7086 75.8301 18.318 76.2214 17.4412C76.6127 16.5644 76.8554 15.289 76.8554 13.5354V11.6223C76.8554 10.347 76.7693 9.31073 76.6127 8.51363C76.4562 7.80421 76.2214 7.24624 75.8301 6.84768C75.4388 6.52884 74.9693 6.37739 74.3432 6.37739C73.8814 6.37739 73.4197 6.52884 73.0284 6.76797C72.6449 7.0071 72.238 7.40566 72.0814 7.88392V1.58682H69.5145L69.5223 1.57884ZM30.3997 2.20058L33.4519 13.2803L33.5927 18.6288H36.1832V13.2803L39.2119 2.20058H36.5745L35.4788 7.23029C35.1658 8.73681 34.9232 9.77305 34.8449 10.4107H34.7745C34.618 9.53392 34.3754 8.49768 34.1406 7.23029L33.0684 2.20058H30.4075H30.3997ZM53.5571 2.20058V4.36073H56.218V18.6288H58.7849V4.36073H61.4458C61.4458 4.36073 61.4458 2.20058 61.3754 2.20058H53.5571ZM11.6954 6.28174L18.6606 10.4107L11.6954 14.468V6.27377V6.28174ZM81.6606 6.35348C80.3301 6.35348 79.3988 6.82377 78.851 7.62087C78.311 8.41 78.0762 9.69334 78.0762 11.5267V13.5912C78.0762 15.3448 78.311 16.6999 78.851 17.497C79.3988 18.3738 80.2597 18.7644 81.5901 18.7644C82.6858 18.7644 83.4527 18.5252 84.0788 17.9673C84.6267 17.4093 84.9319 16.6201 84.9319 15.5042V15.1057L82.6623 14.9383C82.6623 15.7354 82.5997 16.2136 82.4432 16.5325C82.3649 16.8513 82.0519 17.0267 81.6606 17.0267C81.4258 17.0267 81.1832 16.939 81.0266 16.7796C80.8701 16.5404 80.7919 16.3093 80.7136 15.9107C80.6354 15.5122 80.6432 14.9462 80.6432 14.1491V13.5274L85.1119 13.4557V11.3672C85.1119 10.0919 85.0336 9.15131 84.7988 8.43392C84.6423 7.7245 84.2432 7.16653 83.7736 6.84768C83.2258 6.52884 82.6153 6.37739 81.6762 6.37739L81.6606 6.35348ZM42.1467 6.42522C41.2936 6.42522 40.5736 6.5687 40.0258 6.96725C39.478 7.28609 39.0867 7.86 38.8597 8.6571C38.6249 9.45421 38.4684 10.4665 38.4684 11.7419V13.5035C38.4684 14.6991 38.5467 15.7194 38.7814 16.5165C38.938 17.2339 39.3293 17.8078 39.8771 18.2064C40.4171 18.6049 41.2154 18.7484 42.0762 18.8281C43.0075 18.8281 43.704 18.6049 44.2519 18.2861C44.7919 17.9673 45.1049 17.4172 45.418 16.6201C45.7232 15.823 45.8014 14.7868 45.8014 13.5115V11.7499C45.8014 10.4745 45.6449 9.46218 45.418 8.66508C45.1832 7.95566 44.7919 7.37377 44.2519 6.97522C43.704 6.57667 43.0154 6.43319 42.1545 6.43319L42.1467 6.42522ZM51.6788 6.49696V15.9825C51.6006 16.2216 51.4519 16.3651 51.2171 16.5245C51.0606 16.6839 50.818 16.7716 50.5832 16.7716C50.3484 16.7716 50.1293 16.6919 50.051 16.4528C49.9727 16.2136 49.9101 15.8948 49.9101 15.3368V6.57667H47.2493V15.5122C47.2493 16.6281 47.3901 17.4172 47.7814 17.9752C48.1649 18.5332 48.7284 18.7723 49.511 18.7723C50.6067 18.7723 51.4519 18.2223 51.9997 17.1064H52.0701L52.3127 18.5252H54.3397V6.57667C54.3397 6.57667 51.6788 6.57667 51.6788 6.50493V6.49696ZM65.2258 6.49696V15.9825C65.1475 16.2216 64.9988 16.3651 64.764 16.5245C64.6075 16.6839 64.3649 16.7716 64.1301 16.7716C63.8954 16.7716 63.6762 16.6919 63.598 16.4528C63.5197 16.2136 63.4336 15.8948 63.4336 15.3368V6.57667H60.7727V15.5122C60.7727 16.6281 60.9371 17.4172 61.3284 17.9752C61.7197 18.5332 62.2519 18.7723 63.0345 18.7723C64.1223 18.7723 64.9988 18.2223 65.5467 17.1064H65.6171L65.8362 18.5252H67.8867V6.57667C67.8867 6.57667 65.2258 6.57667 65.2258 6.50493V6.49696ZM81.5823 8.1629C81.8954 8.1629 82.0362 8.25058 82.1927 8.41C82.3493 8.64913 82.4275 8.88029 82.5058 9.27884C82.584 9.67739 82.5762 10.2433 82.5762 11.0404V11.9093H80.6197V11.0404C80.6197 10.2433 80.6197 9.67739 80.6901 9.27884C80.6901 8.96 80.7762 8.64116 80.9327 8.48174C81.0893 8.24261 81.3319 8.1629 81.5667 8.1629H81.5823ZM42.0684 8.25855C42.4597 8.25855 42.6945 8.40203 42.851 8.80058C42.9997 9.19913 43.0701 9.83681 43.0701 10.7136V14.4441C43.0701 15.3209 43.0075 15.9586 42.851 16.3571C42.6945 16.7557 42.4597 16.8991 42.0684 16.8991C41.6771 16.8991 41.4501 16.7557 41.2936 16.3571C41.1371 15.9586 41.051 15.3209 41.051 14.4441V10.7136C41.051 9.83681 41.1371 9.19913 41.2936 8.80058C41.4501 8.40203 41.6771 8.25855 42.0684 8.25855ZM73.1223 8.33029C73.3571 8.33029 73.5997 8.41 73.7562 8.64913C73.9127 8.88826 73.9675 9.18319 74.0458 9.74116C74.124 10.2194 74.1397 10.9448 74.1397 11.9013L74.2101 13.4158C74.2101 14.2926 74.2101 15.002 74.1397 15.4803C74.0614 15.9586 73.991 16.3412 73.7562 16.5006C73.5997 16.7397 73.3649 16.8194 73.0519 16.8194C72.8171 16.8194 72.6527 16.7557 72.418 16.6759C72.2614 16.5962 72.1127 16.4448 71.9562 16.2057V9.43029C72.0345 9.11145 72.1832 8.87232 72.418 8.63319C72.6527 8.39406 72.8875 8.31435 73.1223 8.31435V8.33029Z" fill="white"/>
</svg>
