<svg width="21" height="20" viewBox="0 0 21 20" fill="none" xmlns="http://www.w3.org/2000/svg">
<path fill-rule="evenodd" clip-rule="evenodd" d="M7 3.125C7 2.77982 7.27982 2.5 7.625 2.5H17.625C17.9702 2.5 18.25 2.77982 18.25 3.125V13.125C18.25 13.4702 17.9702 13.75 17.625 13.75H13.875C13.5298 13.75 13.25 13.4702 13.25 13.125C13.25 12.7798 13.5298 12.5 13.875 12.5H17V3.75H8.25V6.875C8.25 7.22018 7.97018 7.5 7.625 7.5C7.27982 7.5 7 7.22018 7 6.875V3.125Z" fill="white"/>
<path fill-rule="evenodd" clip-rule="evenodd" d="M3.25 6.875C3.25 6.52982 3.52982 6.25 3.875 6.25H13.875C14.2202 6.25 14.5 6.52982 14.5 6.875V16.875C14.5 17.2202 14.2202 17.5 13.875 17.5H3.875C3.52982 17.5 3.25 17.2202 3.25 16.875V6.875ZM4.5 7.5V16.25H13.25V7.5H4.5Z" fill="white"/>
</svg>
